# xmcd
#
# Track frame offsets:
#	188
#	5356
#	20891
#	34777
#	50278
#	66994
#	89353
#	107225
#	121463
#	134782
#	147380
#	163527
#	179092
#	207207
# Disc length: 2924 seconds
# Revision: 1
# Processed by: cddbd v1.5.1PL2 Copyright (c) Steve Scherf et al.
#
# Submitted via: libkcddb 0.3
#
DISCID=d30b6a0e
DTITLE=Big and Rich - Comin' to Your City
DYEAR=2005
DGENRE=Country
TTITLE0=The Freak Parade
TTITLE1=Comin' to Your City
TTITLE2=Soul Shaker
TTITLE3=Never Mind Me
TTITLE4=Caught up in the Moment
TTITLE5=Leap of Faith
TTITLE6=I Pray for You
TTITLE7=Filthy Rich
TTITLE8=Jalapeno
TTITLE9=20 Margaritas
TTITLE10=Blow My Mind
TTITLE11=Slow Motion
TTITLE12=8th of November
TTITLE13=Our America
EXTD=
EXTT0=
EXTT1=
EXTT2=
EXTT3=
EXTT4=
EXTT5=
EXTT6=
EXTT7=
EXTT8=
EXTT9=
EXTT10=
EXTT11=
EXTT12=
EXTT13=
PLAYORDER=
